HIERARCHY
ROOT Hips
{
	OFFSET 0.000000 0.000000 0.000000
	CHANNELS 6 Xposition Yposition Zposition Zrotation Yrotation Xrotation 
	JOINT LHipJoint
	{
		OFFSET 0.000000 0.000000 0.000000
		CHANNELS 3 Zrotation Yrotation Xrotation
		JOINT LeftUpLeg
		{
			OFFSET 1.363060 -1.794630 0.839290
			CHANNELS 3 Zrotation Yrotation Xrotation
			JOINT LeftLeg
			{
				OFFSET 2.448110 -6.726130 0.000000
				CHANNELS 3 Zrotation Yrotation Xrotation
				JOINT LeftFoot
				{
					OFFSET 2.562200 -7.039590 0.000000
					CHANNELS 3 Zrotation Yrotation Xrotation
					JOINT LeftToeBase
					{
						OFFSET 0.157640 -0.433110 2.322550
						CHANNELS 3 Zrotation Yrotation Xrotation
						End Site
						{
							OFFSET 0.000000 0.000000 0.000000
						}
					}
				}
			}
		}
	}
	JOINT RHipJoint
	{
		OFFSET 0.000000 0.000000 0.000000
		CHANNELS 3 Zrotation Yrotation Xrotation
		JOINT RightUpLeg
		{
			OFFSET -1.305520 -1.794630 0.839290
			CHANNELS 3 Zrotation Yrotation Xrotation
			JOINT RightLeg
			{
				OFFSET -2.542530 -6.985550 0.000000
				CHANNELS 3 Zrotation Yrotation Xrotation
				JOINT RightFoot
				{
					OFFSET -2.568260 -7.056230 0.000000
					CHANNELS 3 Zrotation Yrotation Xrotation
					JOINT RightToeBase
					{
						OFFSET -0.164730 -0.452590 2.363150
						CHANNELS 3 Zrotation Yrotation Xrotation
						End Site
						{
							OFFSET 0.000000 0.000000 0.000000
						}
					}
				}
			}
		}
	}
	JOINT LowerBack
	{
		OFFSET 0.000000 0.000000 0.000000
		CHANNELS 3 Zrotation Yrotation Xrotation
		JOINT Spine
		{
			OFFSET 0.028270 2.035590 -0.193380
			CHANNELS 3 Zrotation Yrotation Xrotation
			JOINT Spine1
			{
				OFFSET 0.056720 2.048850 -0.042750
				CHANNELS 3 Zrotation Yrotation Xrotation
				JOINT Neck
				{
					OFFSET 0.000000 0.000000 0.000000
					CHANNELS 3 Zrotation Yrotation Xrotation
					JOINT Neck1
					{
						OFFSET -0.054170 1.746240 0.172020
						CHANNELS 3 Zrotation Yrotation Xrotation
						JOINT Head
						{
							OFFSET 0.104070 1.761360 -0.123970
							CHANNELS 3 Zrotation Yrotation Xrotation
							End Site
							{
								OFFSET 0.000000 0.000000 0.000000
							}
						}
					}
				}
				JOINT LeftShoulder
				{
					OFFSET 0.000000 0.000000 0.000000
					CHANNELS 3 Zrotation Yrotation Xrotation
					JOINT LeftArm
					{
						OFFSET 3.362410 1.200890 -0.311210
						CHANNELS 3 Zrotation Yrotation Xrotation
						JOINT LeftForeArm
						{
							OFFSET 4.983000 -0.000000 -0.000000
							CHANNELS 3 Zrotation Yrotation Xrotation
							JOINT LeftHand
							{
								OFFSET 3.483560 -0.000000 -0.000000
								CHANNELS 3 Zrotation Yrotation Xrotation
								JOINT LeftFingerBase
								{
									OFFSET 0.000000 0.000000 0.000000
									CHANNELS 3 Zrotation Yrotation Xrotation
									JOINT LeftHandIndex1
									{
										OFFSET 0.715260 -0.000000 -0.000000
										CHANNELS 3 Zrotation Yrotation Xrotation
										End Site
										{
											OFFSET 0.000000 0.000000 0.000000
										}
									}
								}
								JOINT LThumb
								{
									OFFSET 0.000000 0.000000 0.000000
									CHANNELS 3 Zrotation Yrotation Xrotation
									End Site
									{
										OFFSET 0.000000 0.000000 0.000000
									}
								}
							}
						}
					}
				}
				JOINT RightShoulder
				{
					OFFSET 0.000000 0.000000 0.000000
					CHANNELS 3 Zrotation Yrotation Xrotation
					JOINT RightArm
					{
						OFFSET -3.136600 1.374050 -0.404650
						CHANNELS 3 Zrotation Yrotation Xrotation
						JOINT RightForeArm
						{
							OFFSET -5.241900 -0.000000 -0.000000
							CHANNELS 3 Zrotation Yrotation Xrotation
							JOINT RightHand
							{
								OFFSET -3.444170 -0.000000 -0.000000
								CHANNELS 3 Zrotation Yrotation Xrotation
								JOINT RightFingerBase
								{
									OFFSET 0.000000 0.000000 0.000000
									CHANNELS 3 Zrotation Yrotation Xrotation
									JOINT RightHandIndex1
									{
										OFFSET -0.622530 -0.000000 -0.000000
										CHANNELS 3 Zrotation Yrotation Xrotation
										End Site
										{
											OFFSET 0.000000 0.000000 0.000000
										}
									}
								}
								JOINT RThumb
								{
									OFFSET 0.000000 0.000000 0.000000
									CHANNELS 3 Zrotation Yrotation Xrotation
									End Site
									{
										OFFSET 0.000000 0.000000 0.000000
									}
								}
							}
						}
					}
				}
			}
		}
	}
}
MOTION
Frames: 12
Frame Time: 0.008333
-22.566884 18.069842 -5.016153 -157.793238 72.269052 -149.400423 -2.644454 -1.145444 -0.195686 -3.307155 -7.877002 -22.489777 0.173131 10.753883 30.209624 5.319418 -7.822918 7.294320 0.024400 1.008700 2.772700 1.804807 0.302851 -0.161798 13.542644 13.196792 -21.020987 -4.187525 -15.397189 46.915607 -2.826373 10.071155 8.574710 -0.885800 5.999300 -16.782500 -5.800309 1.573926 21.023096 -0.295552 0.970903 4.461040 -0.180085 1.347658 -5.262591 1.371112 2.938377 -1.026319 8.981278 4.900006 -23.925290 0.689200 1.029700 -7.373100 -1.029446 -6.944769 1.238800 -67.163300 5.494435 31.768404 39.684757 -45.367361 -21.159474 0.584702 -1.736465 -7.301705 7.770616 9.488249 1.463200 -7.125000 0.000000 0.000000 -17.324700 40.749500 1.880000 1.639515 5.792183 1.841343 78.541673 -14.422518 36.209923 -34.689794 40.738797 -13.374467 0.653069 0.142594 -5.876434 -7.155891 -14.185476 1.934900 7.125000 0.000000 0.000000 17.867900 -43.598800 0.639600 
-22.477403 18.073643 -5.048617 -157.656100 72.308181 -149.285907 -2.680952 -1.087494 -0.095694 -3.351779 -7.916834 -22.114769 0.170176 10.690627 30.112354 5.240338 -7.578013 6.984272 0.021700 0.950000 2.611400 1.833745 0.397125 -0.296634 13.406619 13.513622 -21.580973 -3.937153 -15.277794 46.088243 -2.896205 10.128327 8.036848 -0.923500 6.122500 -17.140300 -5.871088 1.496328 21.051173 -0.249971 0.871045 4.467425 -0.035507 1.289805 -5.246747 1.279151 3.013534 -1.142919 9.157400 5.047267 -23.981516 0.748800 1.094300 -7.371000 -1.016063 -6.953927 1.256729 -66.992107 5.372126 31.966089 40.495236 -45.784716 -21.806893 0.587238 -1.731507 -7.474621 8.255748 9.389742 1.547000 -7.125000 0.000000 0.000000 -16.882100 40.696700 1.851400 1.645635 5.779458 1.835183 78.496996 -14.522181 36.037224 -34.637648 40.705028 -13.352933 0.658327 0.134395 -5.803363 -7.350857 -14.230851 1.989800 7.125000 0.000000 0.000000 17.705400 -43.655200 0.607800 
-22.386176 18.078574 -5.081697 -157.527190 72.358619 -149.170985 -2.721099 -1.027707 0.007028 -3.402463 -7.946656 -21.726258 0.156971 10.615361 29.978833 5.156775 -7.322548 6.690342 0.018800 0.886200 2.435800 1.870200 0.490504 -0.426273 13.251470 13.817628 -22.105355 -3.640095 -15.115638 45.113017 -2.958332 10.135182 7.617346 -0.964000 6.251400 -17.515600 -5.948852 1.421195 21.048630 -0.191875 0.774610 4.471609 0.128868 1.232573 -5.222173 1.194766 3.099492 -1.268149 9.317992 5.205015 -24.020511 0.801000 1.165400 -7.362300 -1.002973 -6.961579 1.273352 -66.837717 5.279874 32.192322 41.267420 -46.172829 -22.425969 0.588697 -1.726260 -7.680589 8.766427 9.310746 1.637500 -7.125000 0.000000 0.000000 -16.421500 40.664400 1.811100 1.653463 5.765769 1.829079 78.440300 -14.628582 35.850046 -34.535833 40.635489 -13.299038 0.662870 0.123416 -5.663125 -7.573148 -14.243848 2.046800 7.125000 0.000000 0.000000 17.508400 -43.681800 0.588700 
-22.291764 18.085663 -5.116215 -157.362716 72.437466 -149.027744 -2.765694 -0.961469 0.117417 -3.457891 -7.958077 -21.304403 0.132753 10.525549 29.804994 5.065481 -7.048005 6.421567 0.016400 0.827200 2.273400 1.917946 0.579379 -0.549032 13.084317 14.121385 -22.566678 -3.297740 -14.906587 43.989923 -3.008554 10.076444 7.309490 -1.003400 6.374300 -17.874300 -5.992182 1.348975 21.035346 -0.147359 0.686630 4.467376 0.253568 1.179484 -5.208847 1.129969 3.189496 -1.405818 9.488673 5.367530 -24.020529 0.852100 1.238400 -7.339000 -0.991289 -6.966312 1.290298 -66.651811 5.238417 32.464718 41.996311 -46.532312 -23.013970 0.589179 -1.721684 -7.915968 9.297935 9.257636 1.735500 -7.125000 0.000000 0.000000 -15.948300 40.659900 1.757600 1.660668 5.752475 1.822504 78.421014 -14.752391 35.636854 -34.388064 40.533374 -13.214106 0.667272 0.111157 -5.476248 -7.785986 -14.244206 2.099600 7.125000 0.000000 0.000000 17.315600 -43.694800 0.576100 
-22.194784 18.095217 -5.151247 -157.172401 72.525650 -148.858472 -2.813178 -0.889900 0.233824 -3.507615 -7.961871 -20.855438 0.095449 10.419171 29.582750 4.973441 -6.772345 6.190127 0.014800 0.784300 2.155600 1.978142 0.665493 -0.665635 12.913921 14.422123 -22.969855 -2.914851 -14.649536 42.726420 -3.040925 9.928653 7.098946 -1.046000 6.504000 -18.253900 -6.007746 1.275925 21.011421 -0.103267 0.601263 4.453506 0.360986 1.127538 -5.207794 1.070082 3.283585 -1.549013 9.659402 5.531532 -23.987718 0.901600 1.313100 -7.304400 -0.980603 -6.968606 1.306396 -66.458188 5.245000 32.779056 42.677964 -46.862655 -23.565205 0.588078 -1.717245 -8.159868 9.858990 9.247091 1.846000 -7.125000 0.000000 0.000000 -15.459200 40.699500 1.685100 1.667779 5.738951 1.815470 78.418885 -14.887600 35.404169 -34.191014 40.395515 -13.096898 0.671680 0.098281 -5.250293 -7.989121 -14.238075 2.148900 7.125000 0.000000 0.000000 17.129000 -43.700100 0.567100 
-22.095339 18.107134 -5.186895 -156.968431 72.619172 -148.677853 -2.864205 -0.812506 0.356847 -3.551586 -7.963802 -20.375349 0.043963 10.294834 29.307916 4.881084 -6.497157 6.000381 0.013700 0.755300 2.075700 2.051825 0.748519 -0.775651 12.739802 14.712592 -23.312586 -2.495128 -14.342048 41.328008 -3.052832 9.685335 6.994358 -1.079100 6.602800 -18.544000 -5.987471 1.203195 20.985461 -0.066684 0.520521 4.427046 0.437194 1.078038 -5.227467 1.032363 3.375763 -1.690147 9.827480 5.688698 -23.919052 0.946600 1.384600 -7.258700 -0.971738 -6.968562 1.322322 -66.240465 5.297164 33.146314 43.298582 -47.159249 -24.067789 0.585781 -1.713142 -8.405406 10.432480 9.264407 1.964300 -7.125000 0.000000 0.000000 -14.964500 40.768000 1.602400 1.673651 5.726322 1.807849 78.453798 -15.035681 35.141822 -33.941321 40.219082 -12.945093 0.676215 0.084250 -4.985139 -8.183851 -14.223900 2.194800 7.125000 0.000000 0.000000 16.947000 -43.696300 0.562400 
-21.993324 18.121208 -5.223058 -156.754996 72.714816 -148.496932 -2.919475 -0.727207 0.488312 -3.591436 -7.962588 -19.856428 -0.021677 10.152241 28.979433 4.786600 -6.218311 5.850774 0.012900 0.733600 2.016200 2.140076 0.826821 -0.878908 12.565364 14.992213 -23.584536 -2.046300 -13.983672 39.806911 -3.039834 9.329831 6.972660 -1.109400 6.691900 -18.805800 -5.952971 1.133655 20.952747 -0.019864 0.446667 4.398663 0.516975 1.031458 -5.253098 1.000178 3.465756 -1.832059 9.975831 5.834173 -23.823304 0.984900 1.452600 -7.204200 -0.963879 -6.967081 1.336636 -66.033670 5.381191 33.555205 43.855258 -47.422417 -24.517228 0.582337 -1.708851 -8.641195 11.006700 9.308542 2.088500 -7.125000 0.000000 0.000000 -14.474000 40.862800 1.512500 1.680177 5.713469 1.800079 78.485217 -15.184926 34.860460 -33.643997 40.006162 -12.763465 0.680488 0.070197 -4.697064 -8.368031 -14.200779 2.236400 7.125000 0.000000 0.000000 16.771600 -43.682900 0.561900 
-21.888639 18.137337 -5.259836 -156.523076 72.810681 -148.308157 -2.977721 -0.633358 0.628819 -3.623356 -7.958976 -19.299205 -0.101701 9.990166 28.594227 4.690710 -5.937516 5.745783 0.012400 0.720000 1.978800 2.244000 0.900067 -0.975708 12.395972 15.267456 -23.784586 -1.576029 -13.575692 38.177966 -3.001124 8.868122 7.021222 -1.135400 6.767100 -19.027300 -5.878486 1.059545 20.926781 0.022709 0.371794 4.360183 0.568760 0.984829 -5.300872 0.976915 3.550401 -1.966767 10.118111 5.966917 -23.701873 1.020500 1.515100 -7.142600 -0.957697 -6.963227 1.349932 -65.814571 5.515212 34.001156 44.348139 -47.655266 -24.915637 0.578858 -1.704886 -8.857651 11.554990 9.346743 2.207600 -7.125000 0.000000 0.000000 -14.003400 40.950100 1.430200 1.685577 5.700755 1.791954 78.539064 -15.345118 34.565137 -33.309802 39.764357 -12.558295 0.684735 0.057048 -4.385649 -8.517046 -14.181148 2.270000 7.125000 0.000000 0.000000 16.628300 -43.670300 0.562100 
-21.781591 18.155110 -5.297334 -156.295590 72.904176 -148.132120 -3.039730 -0.530863 0.778539 -3.652785 -7.955059 -18.702958 -0.195795 9.809224 28.152598 4.595603 -5.660809 5.677410 0.012200 0.712700 1.958500 2.362501 0.967344 -1.066215 12.227220 15.533152 -23.913442 -1.093598 -13.120594 36.459467 -2.938592 8.314419 7.124757 -1.133100 6.760500 -19.007900 -5.788356 0.982204 20.899808 0.076870 0.295464 4.317878 0.626725 0.937278 -5.358578 0.946753 3.635611 -2.083685 10.238168 6.091838 -23.570886 1.050900 1.576100 -7.081000 -0.952683 -6.958421 1.360656 -65.623522 5.683996 34.464650 44.769983 -47.855629 -25.255218 0.575664 -1.700776 -9.038685 12.054960 9.369070 2.314500 -7.125000 0.000000 0.000000 -13.570500 41.017200 1.361200 1.691483 5.686868 1.784170 78.570959 -15.505363 34.273726 -32.946425 39.497910 -12.336056 0.688710 0.046152 -4.068172 -8.627953 -14.167017 2.295100 7.125000 0.000000 0.000000 16.521200 -43.661400 0.562100 
-21.671564 18.173910 -5.335961 -156.080812 73.000873 -147.986598 -3.102089 -0.420206 0.935313 -3.691087 -7.949670 -18.076196 -0.291483 9.625839 27.702329 4.501444 -5.392232 5.597979 0.012100 0.709700 1.950300 2.491019 1.027643 -1.150986 12.060970 15.790957 -23.982848 -0.618727 -12.635403 34.710472 -2.859434 7.711013 7.247726 -1.118700 6.718900 -18.885200 -5.667774 0.898684 20.885033 0.125707 0.214646 4.267411 0.661819 0.888286 -5.436775 0.928168 3.715328 -2.179999 10.342684 6.204152 -23.429589 1.075700 1.631200 -7.019500 -0.949460 -6.950767 1.370088 -65.424984 5.912340 34.951673 45.142923 -48.036235 -25.557814 0.573851 -1.697967 -9.193833 12.480061 9.369934 2.402200 -7.125000 0.000000 0.000000 -13.198200 41.057400 1.309000 1.696195 5.672174 1.776733 78.609506 -15.682033 33.988079 -32.569237 39.218364 -12.105461 0.691962 0.036658 -3.732045 -8.697991 -14.148907 2.309400 7.125000 0.000000 0.000000 16.449700 -43.645800 0.566000 
-21.559380 18.193224 -5.375616 -155.902451 73.100424 -147.880981 -3.167931 -0.303270 1.100403 -3.740196 -7.936651 -17.419609 -0.400056 9.425085 27.199630 4.405829 -5.124429 5.547861 0.011900 0.703000 1.931900 2.629250 1.082360 -1.231131 11.885294 16.029923 -24.002048 -0.148024 -12.114836 32.914855 -2.769278 7.083087 7.431420 -1.092600 6.642700 -18.661200 -5.534235 0.812769 20.865800 0.179424 0.133112 4.213745 0.695954 0.838800 -5.520567 0.912045 3.789365 -2.256238 10.422085 6.303088 -23.293924 1.093800 1.680900 -6.963100 -0.947269 -6.941968 1.377472 -65.246657 6.175401 35.448802 45.463487 -48.195580 -25.819030 0.574117 -1.695960 -9.310714 12.808662 9.318961 2.458700 -7.125000 0.000000 0.000000 -12.899400 41.037400 1.284700 1.700691 5.656288 1.769759 78.633998 -15.863561 33.698962 -32.187591 38.932014 -11.873604 0.694218 0.030835 -3.398964 -8.699730 -14.133702 2.307600 7.125000 0.000000 0.000000 16.441200 -43.629700 0.572400 
-21.445038 18.200826 -5.415580 -155.785400 73.201175 -147.839319 -3.233994 -0.183525 1.270158 -3.801817 -7.920399 -16.750051 -0.514750 9.216053 26.671811 4.318865 -4.884218 5.517542 0.012100 0.711500 1.955400 2.771349 1.133256 -1.309792 11.696589 16.269443 -23.995462 0.302425 -11.576649 31.121224 -2.667812 6.435185 7.641380 -1.061700 6.551000 -18.391700 -5.388425 0.723841 20.844654 0.229894 0.049370 4.153213 0.719730 0.788555 -5.613874 0.905989 3.856172 -2.308764 10.483107 6.388755 -23.164181 1.106000 1.724000 -6.912400 -0.946356 -6.931727 1.383395 -65.073227 6.476069 35.958504 45.734858 -48.336086 -26.042770 0.576751 -1.695801 -9.389025 13.017974 9.230228 2.481900 -7.125000 0.000000 0.000000 -12.698200 40.970100 1.285400 1.703932 5.639585 1.763105 78.664209 -16.062370 33.403057 -31.808084 38.643983 -11.643703 0.695148 0.027297 -3.047047 -8.642831 -14.110919 2.290100 7.125000 0.000000 0.000000 16.483700 -43.602400 0.585400 
